<?xml version="1.0" standalone="no"?>
<!DOCTYPE svg PUBLIC "-//W3C//DTD SVG 20010904//EN"
 "http://www.w3.org/TR/2001/REC-SVG-20010904/DTD/svg10.dtd">
<svg version="1.0" xmlns="http://www.w3.org/2000/svg"
 width="700.000000pt" height="700.000000pt" viewBox="0 0 700.000000 700.000000"
 preserveAspectRatio="xMidYMid meet">
<metadata>
Created by potrace 1.14, written by Peter Selinger 2001-2017
</metadata>
<g transform="translate(0.000000,700.000000) scale(0.100000,-0.100000)"
fill="#000000" stroke="none">
<path d="M3398 5475 c-2 -3 -22 -7 -44 -11 -56 -8 -175 -58 -242 -100 -71 -45
-194 -169 -247 -249 -100 -152 -220 -443 -305 -745 -12 -41 -28 -97 -36 -125
-8 -27 -16 -62 -19 -77 -3 -14 -17 -80 -31 -145 -22 -96 -27 -148 -29 -278 -3
-147 -1 -169 24 -268 l28 -107 -95 -45 c-176 -83 -409 -226 -489 -298 -77 -70
-95 -125 -62 -192 23 -48 67 -95 88 -95 9 0 48 -28 86 -61 39 -34 84 -73 100
-88 17 -14 77 -66 135 -116 58 -49 107 -92 110 -95 3 -3 34 -30 70 -60 36 -30
67 -57 70 -60 3 -3 34 -30 70 -60 36 -30 67 -57 70 -60 3 -3 34 -30 70 -60 36
-30 67 -57 70 -60 3 -3 70 -62 150 -130 80 -69 159 -137 175 -151 17 -15 51
-44 76 -66 64 -53 259 -222 289 -250 14 -13 28 -23 32 -23 6 0 51 35 84 65 26
23 73 64 139 119 39 33 72 62 75 65 3 3 34 31 70 61 36 30 76 64 90 77 14 12
81 70 150 129 69 59 150 129 181 155 31 27 69 59 85 71 16 12 34 27 39 33 6 6
42 38 80 71 39 32 72 61 75 64 3 3 68 59 145 125 77 66 151 129 165 141 144
125 193 164 205 164 19 0 95 96 96 121 1 10 2 29 3 42 5 55 -53 115 -213 221
-115 76 -223 138 -352 201 l-95 48 18 56 c56 170 61 380 13 596 -14 66 -28
128 -30 137 -41 192 -195 629 -285 808 -135 268 -359 455 -600 498 -53 10
-244 15 -252 7z"/>
</g>
</svg>
