<?xml version="1.0" encoding="utf-8"?>
<!-- Generator: Adobe Illustrator 27.9.0, SVG Export Plug-In . SVG Version: 6.00 Build 0)  -->
<svg version="1.1" id="Layer_1" xmlns="http://www.w3.org/2000/svg" xmlns:xlink="http://www.w3.org/1999/xlink" x="0px" y="0px"
	 viewBox="0 0 1018 1018" style="enable-background:new 0 0 1018 1018;" xml:space="preserve">
<style type="text/css">
	.st0{fill:none;stroke:#FEDD85;stroke-width:2;}
	.st1{fill:none;stroke:#909193;stroke-width:2;}
	.st2{fill:none;stroke:#91701A;stroke-width:2;}
	.st3{fill:none;stroke:#905F14;stroke-width:2;}
	.st4{fill:none;stroke:#918355;stroke-width:2;}
	.st5{fill:none;stroke:#FEAB06;stroke-width:2;}
	.st6{fill:none;stroke:#FFCF47;stroke-width:2;}
	.st7{fill:none;stroke:#FEBD41;stroke-width:2;}
	.st8{fill:#232428;}
	.st9{fill:#FFE182;}
	.st10{fill:#FFBC0C;}
	.st11{fill:#FD9900;}
	.st12{fill:#FDFDFD;}
</style>
<g>
	<path vector-effect="non-scaling-stroke" class="st0" d="M284.6,618.1l226,194.7c0.3,0.3,0.6,0.3,0.9,0l226.7-194.7"/>
	<path vector-effect="non-scaling-stroke" class="st1" d="M738.1,618.1c1.7,0.7,3.2,0.5,4.3-0.6c12.5-11.6,17.9-24.9,2.5-37.2
		c-26-20.9-56.8-37.8-87-51.5c-0.1-0.1-0.2-0.2-0.2-0.4c10.3-28.1,12.7-56.4,7.1-84.9c-9-46.4-23.7-92.6-42.4-135.9
		c-18.5-43-51.3-79.4-100.3-84.6c-31.1-3.3-59.2,6.1-82.3,26.6c-29.8,26.5-43.5,65-56.3,102.3c-11,32-20,64.9-25.4,98.4
		c-4.3,26.6-1.9,52.5,7.2,77.7c0.1,0.3,0,0.5-0.3,0.7c-20.8,9.2-40.9,19.8-60.3,31.8c-10.8,6.7-21.3,14.1-30.5,22.9
		c-11.8,11.4-4,25.8,5.9,34.3c1.1,0.9,2.5,1.1,4.2,0.4"/>
	<path vector-effect="non-scaling-stroke" class="st2" d="M738.1,618.1c-0.1-1.1,0.2-2.3,0.9-3.8"/>
	<path vector-effect="non-scaling-stroke" class="st3" d="M739,614.2c8.9-11.6,16.7-18.7,1.4-30.6c-26.1-20.2-54.6-35.9-84.4-50
		c-0.3-0.1-0.6,0-0.8,0.3l0,0c-21.9,49.6-65.9,82.6-101,115.7c-1,0.9-2.4,1.1-4.4,0.7c-0.3-0.1-0.6,0-0.9,0.1l-5.1,3
		c-0.1,0-0.1,0-0.2-0.1v-0.1c0-0.1,0-0.2,0.1-0.2c3-1.8,5.6-4,7.8-6.6c7.3-8.4,15.6-15.8,23.8-23.3"/>
	<path vector-effect="non-scaling-stroke" class="st2" d="M575.3,623.2c29.7-26.7,62.5-58.1,77.3-97.2c10.5-27.9,13-59.6,5.2-88.7"
		/>
	<path vector-effect="non-scaling-stroke" class="st3" d="M657.8,437.2c-8.3-39.4-19.9-77.8-34.8-115.1
		c-14.4-36.2-33.6-67-69.4-84.9"/>
	<path vector-effect="non-scaling-stroke" class="st2" d="M553.6,237.2c-14-6.4-28.7-9.5-44.1-9.5"/>
	<path vector-effect="non-scaling-stroke" class="st4" d="M509.5,227.7c-22.9,0.4-43.2,7.8-60.9,22.1c-27,21.8-40.1,51.1-52,82.4"/>
	<path vector-effect="non-scaling-stroke" class="st2" d="M396.5,332.2c-14.4,38.4-25.2,76.5-32.3,114.3
		c-8.5,45.1,3.6,88.9,32.2,124.3c19.4,24,43.3,45.3,66.5,66c6.4,5.7,10.8,12.3,17.9,17.2"/>
	<path vector-effect="non-scaling-stroke" class="st3" d="M480.8,654l-6.4-3.2c-0.2-0.1-0.5-0.2-0.7-0.1c-1.7,0.2-3-0.1-3.9-0.9
		c-38.1-34.4-81-67.8-101.6-115.5c-0.2-0.5-0.8-0.7-1.3-0.5l0,0l-3.8,1.9"/>
	<path vector-effect="non-scaling-stroke" class="st4" d="M363,535.7c-19.1,8.7-37.5,18.5-55.2,29.6c-10.5,6.6-21.4,14-30.1,22.9
		c-3.5,3.7-4.6,7.9-3,12.8"/>
	<path vector-effect="non-scaling-stroke" class="st2" d="M274.7,601c2,3.8,5,7.9,8.8,12.3c1,1.1,1.4,2.7,1.1,4.8"/>
	<path vector-effect="non-scaling-stroke" class="st5" d="M553.6,237.2c-0.2,1-0.2,1.9,0,2.8c0.1,0.3,0.3,0.6,0.6,0.8
		c18.1,9.1,30.7,29.9,38.5,48.2c11.5,26.9,18.6,57.3,18.2,86.8c0,3.9,0,7.8,0.1,11.8"/>
	<path vector-effect="non-scaling-stroke" class="st2" d="M611,387.4c-33.4-23.7-75-36.2-115.9-31.6c-38.8,4.4-77.3,21.7-103.9,50.8
		c-1,1.1-2.2,3-3.7,5.9"/>
	<path vector-effect="non-scaling-stroke" class="st5" d="M387.5,412.6c-4.4,3.6-7.8,7.9-10.2,12.9c-12.3,26.1-10.4,59.5-1.9,86.3
		c6.1,19.2,15.9,37.3,29.6,54.2c16.6,20.6,34.3,38.3,53.2,52.9c1.3,1,3.3,1.8,4.8,2.7c0.3,0.2,0.6,0.2,0.9,0.1
		c0.5-0.2,1.1-0.7,1.6-1.3"/>
	<path vector-effect="non-scaling-stroke" class="st2" d="M465.5,620.4c10.9,10.8,20.3,22.6,28.3,35.2"/>
	<path vector-effect="non-scaling-stroke" class="st5" d="M493.9,655.6c0,0.6-0.2,1-0.5,1.2c-0.3,0.1-0.6,0-0.7-0.3
		c-1.2-2.5-5.5-1.6-7.2-0.5c-0.3,0.2-0.6,0.2-0.9,0l-3.6-2"/>
	<path vector-effect="non-scaling-stroke" class="st5" d="M657.8,437.2c-1.3,0.7-2.2,1.7-2.7,2.9c-0.1,0.3-0.3,0.6-0.7,0.7
		c-1.7,0.8-2.3,2.3-1.6,4.6c1.9,6.7,2.3,15.9,2,23.4C653,504.7,636,542,613.6,569.7c-14.4,17.8-30.6,33.6-48.6,47.5
		c-0.7,0.6-0.9,1.6-0.3,2.3c0.3,0.4,0.8,0.6,1.3,0.6c2.8,0,5.1,1,6.9,3c0.2,0.2,0.4,0.2,0.6,0.1c0.6-0.4,1.2-0.4,1.7,0"/>
	<path vector-effect="non-scaling-stroke" class="st5" d="M739,614.2c-11.6-1.2-22.5-4.2-32.9-8.9c-5.1-2.3-10.3-5.9-15.2-9
		c-11.5-7.3-23.5-12.8-36.5-16.9c-0.3-0.1-0.6,0.1-0.6,0.3l0,0c-0.5,1.7-1.3,3.4-2.2,5.1c-17.2,31.9-42.3,55.1-75.1,69.4
		c-8.8,3.9-15.4,6.7-23.7,8.1c-4.5,0.8-8.1,1.5-10.8,2.1c-6,1.3-12,2.1-18.2,2.2"/>
	<path vector-effect="non-scaling-stroke" class="st3" d="M523.6,666.8c6.8-14.4,15.5-27.3,26-38.7c12.8-13.8,28.6-30,42.4-46.9
		c34.1-41.5,52.7-89.6,47.9-144c-0.8-9.5-2.8-18.7-6-27.7c-2.5-7.1-16.7-17.7-22.9-22.1"/>
	<path vector-effect="non-scaling-stroke" class="st6" d="M509.5,227.7c-3,12-7.4,20.9-18.7,27.1c-6.2,3.4-12.5,6.7-18.8,9.9
		c-24.2,12.5-44.2,30.2-57.6,53.9c-2.4,4.2-4.7,8.5-7,12.8c-0.2,0.3-0.5,0.5-0.8,0.5c-3.8,0.1-6.2,1.2-10.1,0.3"/>
	<path vector-effect="non-scaling-stroke" class="st6" d="M363.8,539.5c-3.2,6.2-7.4,12-12.6,17.4c-20.2,21-47.5,38.9-76.5,44.1"/>
	<path vector-effect="non-scaling-stroke" class="st5" d="M500.1,667.7c-2.1-0.1-4.5-0.4-7.1-0.9c-16.6-3.5-31.9-9.6-45.9-18.4
		c-40.5-25.2-69.8-62.9-83.2-108.9"/>
	<path vector-effect="non-scaling-stroke" class="st7" d="M363.8,539.5l-0.8-3.8"/>
	<path vector-effect="non-scaling-stroke" class="st2" d="M523.6,666.8c-3.2,7-5.9,14.4-8.3,22.3c-0.6,2.1-1.6,4-4.1,3.6
		c-1.2-0.2-2.1-1-2.4-2.2c-2.2-7.7-5.1-15.3-8.8-22.8"/>
	<path vector-effect="non-scaling-stroke" class="st3" d="M500.1,667.7l-6.2-12.1"/>
	<path vector-effect="non-scaling-stroke" class="st3" d="M465.5,620.4c-16.7-17.2-30.7-33-41.9-47.6
		C388,526.7,372.7,470,387.4,412.5"/>
	<path vector-effect="non-scaling-stroke" class="st6" d="M478,348.4c0,0.1,0.1,0.2,0.1,0.3c0.1,0.1,0.2,0.2,0.3,0.2l6.8-0.8
		c0.3,0,0.5-0.2,0.8-0.4c0.5-0.6,1.1-1,2-1c9.8-0.3,19.5-0.3,29.2,0.1c7.6,0.2,6.5-7.7,2.1-7.7c-5.4,0-10.8,0-16.2,0
		c-0.1,0-0.2,0-0.3,0.1c-0.1,0.2-0.3,0.3-0.5,0.4s-0.4,0.2-0.6,0.2c-1.8,0.2-3.5,0.5-5.3,0.8c-5.1,0.9-9-0.4-14.1,2.3
		c-0.3,0.2-0.6,0.2-0.9,0.2c-1.9-0.2-4.1,0.8-5.3,1c-19,3.5-38.6,11.8-54.9,21.4c-0.9,0.5-1.6,1-2.3,1.6c-0.2,0.1-0.2,0.3-0.1,0.5
		s0.3,0.2,0.5,0.1l0,0c16.9-8.3,34.7-14.2,53.3-17.6c0.3-0.1,0.6-0.2,0.9-0.4c1.2-1,2.7-1.5,4.4-1.3
		C477.9,348.3,478,348.4,478,348.4"/>
	<path vector-effect="non-scaling-stroke" class="st2" d="M439.4,467.2c1.4,1.6,2.8,2.9,4,3.9c7.4,5.9,16.2,10.7,25.4,14
		c37.4,13.2,82.2,9.6,113.6-16.3c0.7-0.6,1.7-1.6,3-3.2"/>
	<path vector-effect="non-scaling-stroke" class="st3" d="M585.4,465.5c8.3-9.2,13-21.2,9.9-33.4c-4.9-19.5-22-30.7-40.5-36.7
		c-25.7-8.3-51.4-9.4-77-3.2c-14.8,3.6-31.2,10.6-41.3,22.5c-14,16.3-12.3,37.7,2.9,52.4"/>
	<path vector-effect="non-scaling-stroke" class="st5" d="M585.4,465.5c-0.6-1.5-0.9-3.1-0.9-4.8c0-6.2-1.9-12-4.2-17.6
		c-0.9-2.1-2.1-4.1-3.8-5.9c-9.6-10.5-18.2-18-32-21.5c-6.4-1.6-11.8-2.5-16.3-2.6c-6.2-0.1-13.3,0.8-21.4,2.8
		c-11.1,2.7-18.1,10.2-27.9,14.9c-11.4,5.4-24.5,8-31.7,19.6c-3.3,5.3-5.9,10.9-7.9,16.9"/>
	<path vector-effect="non-scaling-stroke" class="st1" d="M491.2,509.1c15,3.7,30.7,4,45.8,2.2c15.8-1.9,30.2-7.9,43.2-18
		c0.2-0.2,0.3-0.6,0.1-0.8c-0.1-0.2-0.4-0.2-0.6-0.2c-0.3,0.1-0.6,0.2-1.1,0.4c-27.5,11.9-57.4,16.9-87.3,15.7
		c-0.2,0-0.4,0.1-0.4,0.3C490.9,508.9,491,509,491.2,509.1"/>
	<path vector-effect="non-scaling-stroke" class="st5" d="M493,754.4l-2.1,0.8c-0.3,0.1-0.4,0.4-0.2,0.7
		c13.1,22.8,44.7,14.1,45.9-11.4c0.1-1.3-0.4-2-1.5-2.1"/>
	<path vector-effect="non-scaling-stroke" class="st2" d="M535,742.4c2.4-27.3-31.7-38.4-44.9-14.5c-4.8,8.7-3.8,17.5,2.8,26.4"/>
	<path vector-effect="non-scaling-stroke" class="st3" d="M535,742.4c-4.2,20.9-27.3,28.4-42.1,12"/>
</g>
<path class="st8" d="M738.1,618.1c-0.1-1.1,0.2-2.3,0.9-3.8c8.9-11.6,16.7-18.7,1.4-30.6c-26.1-20.2-54.6-35.9-84.4-50
	c-0.3-0.1-0.6,0-0.8,0.3l0,0c-21.9,49.6-65.9,82.6-101,115.7c-1,0.9-2.4,1.1-4.4,0.7c-0.3-0.1-0.6,0-0.9,0.1l-5.1,3
	c-0.1,0-0.1,0-0.2-0.1v-0.1c0-0.1,0-0.2,0.1-0.2c3-1.8,5.6-4,7.8-6.6c7.3-8.4,15.6-15.8,23.8-23.3c29.7-26.7,62.5-58.1,77.3-97.2
	c10.5-27.9,13-59.6,5.2-88.7c-8.3-39.4-19.9-77.8-34.8-115.1c-14.4-36.2-33.6-67-69.4-84.9c-14-6.4-28.7-9.5-44.1-9.5
	c-22.9,0.4-43.2,7.8-60.9,22.1c-27,21.8-40.1,51.1-52,82.4c-14.4,38.4-25.2,76.5-32.3,114.3c-8.5,45.1,3.6,88.9,32.2,124.3
	c19.4,24,43.3,45.3,66.5,66c6.4,5.7,10.8,12.3,17.9,17.2l-6.4-3.2c-0.2-0.1-0.5-0.2-0.7-0.1c-1.7,0.2-3-0.1-3.9-0.9
	c-38.1-34.4-81-67.8-101.6-115.5c-0.2-0.5-0.8-0.7-1.3-0.5l0,0l-3.8,1.9c-19.1,8.7-37.5,18.5-55.2,29.6c-10.5,6.6-21.4,14-30.1,22.9
	c-3.5,3.7-4.6,7.9-3,12.8c2,3.8,5,7.9,8.8,12.3c1,1.1,1.4,2.7,1.1,4.8c-1.7,0.7-3.1,0.5-4.2-0.4c-9.9-8.5-17.7-22.9-5.9-34.3
	c9.1-8.8,19.7-16.2,30.5-22.9c19.3-12,39.4-22.6,60.3-31.8c0.3-0.1,0.4-0.4,0.3-0.7c-9.1-25.2-11.5-51.1-7.2-77.7
	C364,416.9,373,384,384,352c12.8-37.3,26.5-75.9,56.3-102.3c23-20.5,51.2-29.9,82.3-26.6c49,5.2,81.8,41.6,100.3,84.6
	c18.6,43.3,33.3,89.6,42.4,135.9c5.6,28.5,3.2,56.8-7.1,84.9c-0.1,0.1,0,0.3,0.2,0.4c30.3,13.7,61,30.6,87,51.5
	c15.4,12.3,10,25.7-2.5,37.2C741.3,618.6,739.9,618.8,738.1,618.1z"/>
<path class="st9" d="M509.5,227.7c-3,12-7.4,20.9-18.7,27.1c-6.2,3.4-12.5,6.7-18.8,9.9c-24.2,12.5-44.2,30.2-57.6,53.9
	c-2.4,4.2-4.7,8.5-7,12.8c-0.2,0.3-0.5,0.5-0.8,0.5c-3.8,0.1-6.2,1.2-10.1,0.3c11.9-31.4,24.9-60.6,52-82.4
	C466.3,235.5,486.6,228.1,509.5,227.7z"/>
<path class="st10" d="M509.5,227.7c15.4,0,30.1,3.2,44.1,9.5c-0.2,1-0.2,1.9,0,2.8c0.1,0.3,0.3,0.6,0.6,0.8
	c18.1,9.1,30.7,29.9,38.5,48.2c11.5,26.9,18.6,57.3,18.2,86.8c0,3.9,0,7.8,0.1,11.8c-33.4-23.7-75-36.2-115.9-31.6
	c-38.8,4.4-77.3,21.7-103.9,50.8c-1,1.1-2.2,3-3.7,5.9c-4.4,3.6-7.8,7.9-10.2,12.9c-12.3,26.1-10.4,59.5-1.9,86.3
	c6.1,19.2,15.9,37.3,29.6,54.2c16.6,20.6,34.3,38.3,53.2,52.9c1.3,1,3.3,1.8,4.8,2.7c0.3,0.2,0.6,0.2,0.9,0.1
	c0.5-0.2,1.1-0.7,1.6-1.3c10.9,10.8,20.3,22.6,28.3,35.2c0,0.6-0.2,1-0.5,1.2c-0.3,0.1-0.6,0-0.7-0.3c-1.2-2.5-5.5-1.6-7.2-0.5
	c-0.3,0.2-0.6,0.2-0.9,0l-3.6-2c-7-4.9-11.4-11.5-17.9-17.2c-23.3-20.6-47.2-42-66.5-66c-28.6-35.4-40.7-79.2-32.2-124.3
	c7.1-37.8,17.9-75.9,32.3-114.3c3.9,0.9,6.2-0.2,10.1-0.3c0.3,0,0.6-0.2,0.8-0.5c2.3-4.3,4.6-8.6,7-12.8
	c13.4-23.6,33.4-41.4,57.6-53.9c6.3-3.3,12.6-6.6,18.8-9.9C502.1,248.6,506.4,239.7,509.5,227.7z M478,348.4c0,0.1,0.1,0.2,0.1,0.3
	c0.1,0.1,0.2,0.2,0.3,0.2l6.8-0.8c0.3,0,0.5-0.2,0.8-0.4c0.5-0.6,1.1-1,2-1c9.8-0.3,19.5-0.3,29.2,0.1c7.6,0.2,6.5-7.7,2.1-7.7
	c-5.4,0-10.8,0-16.2,0c-0.1,0-0.2,0-0.3,0.1c-0.1,0.2-0.3,0.3-0.5,0.4s-0.4,0.2-0.6,0.2c-1.8,0.2-3.5,0.5-5.3,0.8
	c-5.1,0.9-9-0.4-14.1,2.3c-0.3,0.2-0.6,0.2-0.9,0.2c-1.9-0.2-4.1,0.8-5.3,1c-19,3.5-38.6,11.8-54.9,21.4c-0.9,0.5-1.6,1-2.3,1.6
	c-0.2,0.1-0.2,0.3-0.1,0.5s0.3,0.2,0.5,0.1l0,0c16.9-8.3,34.7-14.2,53.3-17.6c0.3-0.1,0.6-0.2,0.9-0.4c1.2-1,2.7-1.5,4.4-1.3
	C477.9,348.3,478,348.4,478,348.4z"/>
<path class="st11" d="M553.6,237.2c35.8,17.9,55,48.7,69.4,84.9c14.9,37.4,26.5,75.7,34.8,115.1c-1.3,0.7-2.2,1.7-2.7,2.9
	c-0.1,0.3-0.3,0.6-0.7,0.7c-1.7,0.8-2.3,2.3-1.6,4.6c1.9,6.7,2.3,15.9,2,23.4C653,504.7,636,542,613.6,569.7
	c-14.4,17.8-30.6,33.6-48.6,47.5c-0.7,0.6-0.9,1.6-0.3,2.3c0.3,0.4,0.8,0.6,1.3,0.6c2.8,0,5.1,1,6.9,3c0.2,0.2,0.4,0.2,0.6,0.1
	c0.6-0.4,1.2-0.4,1.7,0c-8.2,7.5-16.5,14.9-23.8,23.3c-2.3,2.6-4.9,4.8-7.8,6.6c-0.1,0.1-0.1,0.2-0.1,0.2v0.1c0,0.1,0.1,0.1,0.2,0.1
	l5.1-3c0.3-0.2,0.6-0.2,0.9-0.1c2,0.5,3.4,0.2,4.4-0.7c35.1-33.1,79.1-66.1,101-115.7c0.1-0.3,0.5-0.4,0.8-0.3l0,0
	c29.8,14.1,58.3,29.7,84.4,50c15.3,11.9,7.6,19-1.4,30.6c-11.6-1.2-22.5-4.2-32.9-8.9c-5.1-2.3-10.3-5.9-15.2-9
	c-11.5-7.3-23.5-12.8-36.5-16.9c-0.3-0.1-0.6,0.1-0.6,0.3l0,0c-0.5,1.7-1.3,3.4-2.2,5.1c-17.2,31.9-42.3,55.1-75.1,69.4
	c-8.8,3.9-15.4,6.7-23.7,8.1c-4.5,0.8-8.1,1.5-10.8,2.1c-6,1.3-12,2.1-18.2,2.2c6.8-14.4,15.5-27.3,26-38.7
	c12.8-13.8,28.6-30,42.4-46.9c34.1-41.5,52.7-89.6,47.9-144c-0.8-9.5-2.8-18.7-6-27.7c-2.5-7.1-16.7-17.7-22.9-22.1
	c-0.1-4-0.1-7.9-0.1-11.8c0.3-29.5-6.7-59.9-18.2-86.8c-7.8-18.3-20.4-39.1-38.5-48.2c-0.3-0.2-0.5-0.4-0.6-0.8
	C553.4,239.2,553.4,238.2,553.6,237.2z"/>
<path class="st9" d="M477.8,348.3c-1.7-0.2-3.1,0.3-4.4,1.3c-0.3,0.2-0.5,0.4-0.9,0.4c-18.6,3.4-36.3,9.3-53.3,17.6
	c-0.2,0.1-0.4,0.1-0.5-0.1s-0.1-0.4,0.1-0.5l0,0c0.6-0.5,1.4-1,2.3-1.6c16.3-9.6,35.9-17.9,54.9-21.4c1.2-0.2,3.4-1.2,5.3-1
	c0.3,0,0.6,0,0.9-0.2c5.1-2.7,9-1.4,14.1-2.3c1.8-0.3,3.5-0.6,5.3-0.8c0.2,0,0.4-0.1,0.6-0.2s0.4-0.2,0.5-0.4
	c0.1-0.1,0.2-0.1,0.3-0.1c5.4,0,10.8,0,16.2,0c4.4,0,5.5,8-2.1,7.7c-9.7-0.3-19.5-0.4-29.2-0.1c-0.9,0-1.4,0.4-2,1
	c-0.2,0.2-0.5,0.4-0.8,0.4l-6.8,0.8c-0.1,0-0.2,0-0.3-0.2c0-0.1-0.1-0.2-0.1-0.3C478,348.4,477.9,348.3,477.8,348.3z"/>
<path class="st8" d="M611,387.4c6.2,4.4,20.4,15,22.9,22.1c3.2,9,5.1,18.2,6,27.7c4.8,54.4-13.8,102.5-47.9,144
	c-13.8,16.8-29.6,33-42.4,46.9c-10.5,11.4-19.2,24.3-26,38.7c-3.2,7-5.9,14.4-8.3,22.3c-0.6,2.1-1.6,4-4.1,3.6
	c-1.2-0.2-2.1-1-2.4-2.2c-2.2-7.7-5.1-15.3-8.8-22.8l-6.2-12.1c-8-12.6-17.5-24.4-28.3-35.2c-16.7-17.2-30.7-33-41.9-47.6
	C388,526.7,372.7,470,387.4,412.5c1.5-2.9,2.7-4.8,3.7-5.9c26.6-29.1,65.1-46.5,103.9-50.8C535.9,351.2,577.6,363.7,611,387.4z
	 M439.4,467.2c1.4,1.6,2.8,2.9,4,3.9c7.4,5.9,16.2,10.7,25.4,14c37.4,13.2,82.2,9.6,113.6-16.3c0.7-0.6,1.7-1.6,3-3.2
	c8.3-9.2,13-21.2,9.9-33.4c-4.9-19.5-22-30.7-40.5-36.7c-25.7-8.3-51.4-9.4-77-3.2c-14.8,3.6-31.2,10.6-41.3,22.5
	C422.5,431.1,424.2,452.4,439.4,467.2z M491.2,509.1c15,3.7,30.7,4,45.8,2.2c15.8-1.9,30.2-7.9,43.2-18c0.2-0.2,0.3-0.6,0.1-0.8
	c-0.1-0.2-0.4-0.2-0.6-0.2c-0.3,0.1-0.6,0.2-1.1,0.4c-27.5,11.9-57.4,16.9-87.3,15.7c-0.2,0-0.4,0.1-0.4,0.3
	C490.9,508.9,491,509,491.2,509.1z"/>
<path class="st11" d="M585.4,465.5c-0.6-1.5-0.9-3.1-0.9-4.8c0-6.2-1.9-12-4.2-17.6c-0.9-2.1-2.1-4.1-3.8-5.9
	c-9.6-10.5-18.2-18-32-21.5c-6.4-1.6-11.8-2.5-16.3-2.6c-6.2-0.1-13.3,0.8-21.4,2.8c-11.1,2.7-18.1,10.2-27.9,14.9
	c-11.4,5.4-24.5,8-31.7,19.6c-3.3,5.3-5.9,10.9-7.9,16.9c-15.2-14.7-16.9-36.1-2.9-52.4c10.1-11.8,26.5-18.9,41.3-22.5
	c25.6-6.2,51.3-5.1,77,3.2c18.5,6,35.6,17.1,40.5,36.7C598.4,444.4,593.7,456.4,585.4,465.5z"/>
<path class="st10" d="M585.4,465.5c-1.3,1.5-2.3,2.6-3,3.2c-31.4,25.9-76.2,29.5-113.6,16.3c-9.2-3.2-18-8.1-25.4-14
	c-1.2-1-2.6-2.3-4-3.9c2-6,4.6-11.6,7.9-16.9c7.2-11.6,20.2-14.2,31.7-19.6c9.8-4.6,16.8-12.1,27.9-14.9c8.1-2,15.2-2.9,21.4-2.8
	c4.5,0.1,9.9,1,16.3,2.6c13.8,3.5,22.4,11.1,32,21.5c1.7,1.8,3,3.8,3.8,5.9c2.3,5.7,4.1,11.5,4.2,17.6
	C584.6,462.4,584.9,464,585.4,465.5z"/>
<path class="st11" d="M387.5,412.6c-14.7,57.5,0.6,114.2,36.2,160.3c11.2,14.5,25.2,30.4,41.9,47.6c-0.5,0.7-1,1.1-1.6,1.3
	c-0.3,0.1-0.6,0.1-0.9-0.1c-1.5-0.9-3.5-1.6-4.8-2.7c-18.9-14.7-36.6-32.3-53.2-52.9c-13.6-17-23.5-35.1-29.6-54.2
	c-8.5-26.8-10.4-60.2,1.9-86.3C379.7,420.5,383.1,416.1,387.5,412.6z"/>
<path class="st10" d="M657.8,437.2c7.8,29.2,5.3,60.8-5.2,88.7c-14.8,39.2-47.6,70.5-77.3,97.2c-0.5-0.3-1.1-0.3-1.7,0
	c-0.2,0.1-0.4,0.1-0.6-0.1c-1.8-2-4.1-3-6.9-3c-0.9,0-1.6-0.7-1.7-1.6c0-0.5,0.2-1,0.6-1.3c18-13.9,34.2-29.7,48.6-47.5
	c22.3-27.6,39.4-65,41.1-100.8c0.4-7.5,0-16.7-2-23.4c-0.7-2.3-0.1-3.8,1.6-4.6c0.3-0.1,0.5-0.4,0.7-0.7
	C655.6,438.9,656.5,437.9,657.8,437.2z"/>
<path class="st12" d="M491.2,509.1c-0.2-0.1-0.3-0.3-0.3-0.5s0.2-0.3,0.4-0.3c29.9,1.2,59.9-3.8,87.3-15.7c0.5-0.2,0.8-0.3,1.1-0.4
	s0.6,0.1,0.7,0.5c0,0.2,0,0.4-0.2,0.6c-13,10.1-27.4,16.1-43.2,18C521.9,513.1,506.2,512.8,491.2,509.1z"/>
<path class="st11" d="M480.8,654l3.6,2c0.3,0.2,0.6,0.1,0.9,0c1.7-1.1,6.1-2,7.2,0.5c0.2,0.3,0.4,0.4,0.7,0.3
	c0.4-0.2,0.6-0.6,0.5-1.2l6.2,12.1c-2.1-0.1-4.5-0.4-7.1-0.9c-16.6-3.5-31.9-9.6-45.9-18.4c-40.5-25.2-69.8-62.9-83.2-108.9
	l-0.8-3.8l3.8-1.9c0.5-0.2,1.1,0,1.3,0.4l0,0c20.5,47.7,63.5,81,101.6,115.5c0.9,0.8,2.2,1.1,3.9,0.9c0.2,0,0.5,0,0.7,0.1L480.8,654
	z"/>
<path class="st9" d="M363,535.7l0.8,3.8c-3.2,6.2-7.4,12-12.6,17.4c-20.2,21-47.5,38.9-76.5,44.1c-1.5-4.9-0.5-9.1,3-12.8
	c8.6-8.9,19.6-16.3,30.1-22.9C325.5,554.2,343.9,544.4,363,535.7z"/>
<path class="st10" d="M363.8,539.5c13.5,46,42.8,83.7,83.2,108.9c14.1,8.8,29.4,14.9,45.9,18.4c2.6,0.6,5,0.9,7.1,0.9
	c3.6,7.5,6.5,15.1,8.8,22.8c0.3,1.1,1.3,2,2.4,2.2c2.4,0.4,3.4-1.5,4.1-3.6c2.3-7.8,5.1-15.3,8.3-22.3c6.2-0.2,12.3-0.9,18.2-2.2
	c2.7-0.6,6.3-1.3,10.8-2.1c8.3-1.4,14.9-4.2,23.7-8.1c32.9-14.4,57.9-37.5,75.1-69.4c0.9-1.7,1.6-3.4,2.2-5.1
	c0.1-0.3,0.4-0.4,0.6-0.3l0,0c13.1,4.1,25,9.6,36.5,16.9c5,3.1,10.1,6.7,15.2,9c10.4,4.7,21.4,7.6,32.9,8.9c-0.7,1.5-1,2.8-0.9,3.8
	L511.4,812.8c-0.3,0.3-0.6,0.2-0.9,0l-226-194.7c0.2-2-0.1-3.6-1.1-4.8c-3.8-4.4-6.7-8.5-8.8-12.3c29-5.2,56.3-23.1,76.5-44.1
	C356.4,551.5,360.6,545.7,363.8,539.5z M493,754.4l-2.1,0.8c-0.3,0.1-0.4,0.4-0.2,0.7c13.1,22.8,44.7,14.1,45.9-11.4
	c0.1-1.3-0.4-2-1.5-2.1c2.4-27.3-31.7-38.4-44.9-14.5C485.4,736.6,486.3,745.4,493,754.4z"/>
<path class="st8" d="M535,742.4c-4.2,20.9-27.3,28.4-42.1,12c-6.6-9-7.6-17.8-2.8-26.4C503.3,704,537.4,715.1,535,742.4z"/>
<path class="st11" d="M535,742.4c1,0.1,1.5,0.8,1.5,2.1c-1.2,25.5-32.8,34.2-45.9,11.4c-0.2-0.3-0.1-0.5,0.2-0.7l2.1-0.8
	C507.7,770.8,530.8,763.3,535,742.4z"/>
</svg>
